<?xml version="1.0" ?><svg id="Layer_1" style="enable-background:new 0 0 64 64;" version="1.1" viewBox="0 0 64 64" xml:space="preserve" xmlns="http://www.w3.org/2000/svg" xmlns:xlink="http://www.w3.org/1999/xlink"><style type="text/css">
	.st0{fill:#56AAFF;}
	.st1{fill:none;stroke:#0478ED;stroke-width:2;stroke-miterlimit:10;}
	.st2{fill:#0478ED;}
	.st3{fill:#D9DCE1;}
	.st4{fill:none;stroke:#0478ED;stroke-width:5;stroke-linecap:round;stroke-miterlimit:10;}
	.st5{fill:#FFFFFF;}
	.st6{fill:none;stroke:#FFFFFF;stroke-width:2;stroke-miterlimit:10;}
	.st7{fill:none;stroke:#56AAFF;stroke-width:2;stroke-miterlimit:10;}
	.st8{fill:none;stroke:#0478ED;stroke-width:3;stroke-linecap:square;stroke-miterlimit:10;}
	.st9{fill:none;stroke:#56AAFF;stroke-width:5;stroke-miterlimit:10;}
	.st10{fill:none;stroke:#0478ED;stroke-width:3;stroke-miterlimit:10;}
	.st11{fill:none;stroke:#D9DCE1;stroke-width:4;stroke-miterlimit:10;}
	.st12{fill:none;stroke:#56AAFF;stroke-width:3;stroke-miterlimit:10;}
	.st13{fill:none;stroke:#56AAFF;stroke-width:3;stroke-linecap:round;stroke-miterlimit:10;}
	.st14{fill-rule:evenodd;clip-rule:evenodd;fill:#D9DCE1;}
	.st15{fill-rule:evenodd;clip-rule:evenodd;fill:#56AAFF;}
	.st16{fill:none;stroke:#FFFFFF;stroke-width:2;stroke-linecap:round;stroke-linejoin:round;stroke-miterlimit:10;}
	.st17{fill:none;stroke:#0478ED;stroke-width:2;stroke-linecap:round;stroke-miterlimit:10;}
	.st18{fill:none;stroke:#0478ED;stroke-width:2;stroke-linecap:round;stroke-miterlimit:10;stroke-dasharray:0.1099,4.3951;}
	.st19{fill:none;stroke:#0478ED;stroke-width:2;stroke-linecap:round;stroke-miterlimit:10;stroke-dasharray:9.264706e-02,3.7059;}
	.st20{fill:#FFFFFF;stroke:#56AAFF;stroke-width:2;stroke-miterlimit:10;}
	.st21{fill:none;stroke:#FFFFFF;stroke-width:4;stroke-miterlimit:10;}
	.st22{fill:none;stroke:#0478ED;stroke-width:2;stroke-linecap:round;stroke-miterlimit:10;stroke-dasharray:9.776388e-02,3.9106;}
	.st23{fill:none;stroke:#D9DCE1;stroke-width:2;stroke-linecap:round;stroke-miterlimit:10;}
	.st24{fill:none;stroke:#D9DCE1;stroke-width:2;stroke-linecap:round;stroke-miterlimit:10;stroke-dasharray:9.002770e-02,3.6011;}
	.st25{fill:none;stroke:#D9DCE1;stroke-width:2;stroke-linecap:round;stroke-miterlimit:10;stroke-dasharray:0.1152,4.606;}
	.st26{fill:none;stroke:#D9DCE1;stroke-width:2;stroke-linecap:round;stroke-miterlimit:10;stroke-dasharray:9.058228e-02,3.6233;}
	.st27{fill:none;stroke:#D9DCE1;stroke-width:2;stroke-linecap:round;stroke-miterlimit:10;stroke-dasharray:8.905454e-02,3.5622;}
	.st28{fill:none;stroke:#D9DCE1;stroke-width:2;stroke-linecap:round;stroke-miterlimit:10;stroke-dasharray:9.102297e-02,3.6409;}
	.st29{fill:none;stroke:#D9DCE1;stroke-width:2;stroke-linecap:round;stroke-miterlimit:10;stroke-dasharray:9.122662e-02,3.6491;}
	.st30{fill:none;stroke:#D9DCE1;stroke-width:2;stroke-linecap:round;stroke-miterlimit:10;stroke-dasharray:6.419753e-02,2.5679;}
	.st31{fill:none;stroke:#D9DCE1;stroke-width:2;stroke-linecap:round;stroke-miterlimit:10;stroke-dasharray:6.666666e-02,2.6667;}
	.st32{fill:none;stroke:#D9DCE1;stroke-width:2;stroke-linecap:round;stroke-miterlimit:10;stroke-dasharray:6.335912e-02,2.5344;}
	.st33{fill:none;stroke:#D9DCE1;stroke-width:2;stroke-linecap:round;stroke-miterlimit:10;stroke-dasharray:6.514134e-02,2.6057;}
	.st34{fill:none;stroke:#D9DCE1;stroke-width:2;stroke-linecap:round;stroke-miterlimit:10;stroke-dasharray:6.387379e-02,2.555;}
	.st35{fill:none;stroke:#D9DCE1;stroke-width:2;stroke-linecap:round;stroke-miterlimit:10;stroke-dasharray:6.425033e-02,2.57;}
	.st36{fill-rule:evenodd;clip-rule:evenodd;fill:#0478ED;}
	.st37{fill:none;stroke:#56AAFF;stroke-width:3;stroke-linecap:round;stroke-linejoin:round;stroke-miterlimit:10;}
	.st38{fill:none;stroke:#D9DCE1;stroke-width:3;stroke-miterlimit:10;}
</style><g id="custom_x5F_design"/><g><path class="st3" d="M41.5,15.8L41.5,15.8l-9.1-3.6c-0.3-0.1-0.7-0.1-1,0l-9,3.6c-0.1,0.1-0.2,0.1-0.3,0.2l10.1,4   c0,0,0.2-0.2,0.3-0.2l9.3-3.7C41.8,15.9,41.7,15.8,41.5,15.8z"/></g><g><path class="st0" d="M41.5,11.6L41.5,11.6L32.4,8c-0.3-0.1-0.7-0.1-1,0l-9,3.6c-0.3,0.1-0.5,0.4-0.5,0.8l0,10.8   c0,0.4,0.2,0.7,0.5,0.8l9.1,3.6l0,0c0.2,0.1,0.3,0.1,0.5,0.1l0-11.3c0-0.4,0.2-0.7,0.5-0.8l9.3-3.7C41.8,11.7,41.7,11.6,41.5,11.6z   "/><path class="st3" d="M41.5,11.6L41.5,11.6L32.4,8c-0.3-0.1-0.7-0.1-1,0l-9,3.6c-0.1,0.1-0.2,0.1-0.3,0.2l10.1,4   c0,0,0.2-0.2,0.3-0.2l9.3-3.7C41.8,11.7,41.7,11.6,41.5,11.6z"/><path class="st2" d="M42.1,12.4c0-0.2-0.1-0.4-0.2-0.5l-9.3,3.7C32.2,15.7,32,16,32,16.4v11.3c0.2,0,0.3,0,0.5-0.1l0,0l9-3.6   c0.3-0.1,0.5-0.4,0.5-0.8L42.1,12.4L42.1,12.4z"/></g><g><path class="st0" d="M56.5,33.5L56.5,33.5l-9.1-3.6c-0.3-0.1-0.7-0.1-1,0l-9,3.6c-0.3,0.1-0.5,0.4-0.5,0.8l0,10.8   c0,0.4,0.2,0.7,0.5,0.8l9.1,3.6l0,0c0.2,0.1,0.3,0.1,0.5,0.1l0-11.3c0-0.4,0.2-0.7,0.5-0.8l9.3-3.7C56.7,33.6,56.6,33.5,56.5,33.5z   "/><path class="st3" d="M56.5,33.5L56.5,33.5l-9.1-3.6c-0.3-0.1-0.7-0.1-1,0l-9,3.6c-0.1,0.1-0.2,0.1-0.3,0.2l10.1,4   c0,0,0.2-0.2,0.3-0.2l9.3-3.7C56.7,33.6,56.6,33.5,56.5,33.5z"/><path class="st2" d="M57,34.3c0-0.2-0.1-0.4-0.2-0.5l-9.3,3.7c-0.3,0.1-0.5,0.4-0.5,0.8v11.3c0.2,0,0.3,0,0.5-0.1l0,0l9-3.6   c0.3-0.1,0.5-0.4,0.5-0.8L57,34.3L57,34.3z"/><path class="st0" d="M56.5,18.2L56.5,18.2l-9.1-3.6c-0.3-0.1-0.7-0.1-1,0l-9,3.6c-0.3,0.1-0.5,0.4-0.5,0.8l0,10.8   c0,0.4,0.2,0.7,0.5,0.8l9.1,3.6l0,0c0.2,0.1,0.3,0.1,0.5,0.1l0-11.3c0-0.4,0.2-0.7,0.5-0.8l9.3-3.7C56.7,18.3,56.6,18.2,56.5,18.2z   "/><path class="st3" d="M56.5,18.2L56.5,18.2l-9.1-3.6c-0.3-0.1-0.7-0.1-1,0l-9,3.6c-0.1,0.1-0.2,0.1-0.3,0.2l10.1,4   c0,0,0.2-0.2,0.3-0.2l9.3-3.7C56.7,18.3,56.6,18.2,56.5,18.2z"/><path class="st2" d="M57,19c0-0.2-0.1-0.4-0.2-0.5l-9.3,3.7c-0.3,0.1-0.5,0.4-0.5,0.8v11.3c0.2,0,0.3,0,0.5-0.1l0,0l9-3.6   c0.3-0.1,0.5-0.4,0.5-0.8L57,19L57,19z"/></g><g><path class="st0" d="M26.6,33.5L26.6,33.5l-9.1-3.6c-0.3-0.1-0.7-0.1-1,0l-9,3.6C7.2,33.6,7,33.9,7,34.3L7,45   c0,0.4,0.2,0.7,0.5,0.8l9.1,3.6l0,0c0.2,0.1,0.3,0.1,0.5,0.1l0-11.3c0-0.4,0.2-0.7,0.5-0.8l9.3-3.7C26.9,33.6,26.7,33.5,26.6,33.5z   "/><path class="st3" d="M26.6,33.5L26.6,33.5l-9.1-3.6c-0.3-0.1-0.7-0.1-1,0l-9,3.6c-0.1,0.1-0.2,0.1-0.3,0.2l10.1,4   c0,0,0.2-0.2,0.3-0.2l9.3-3.7C26.9,33.6,26.7,33.5,26.6,33.5z"/><path class="st2" d="M27.1,34.3c0-0.2-0.1-0.4-0.2-0.5l-9.3,3.7c-0.3,0.1-0.5,0.4-0.5,0.8v11.3c0.2,0,0.3,0,0.5-0.1l0,0l9-3.6   c0.3-0.1,0.5-0.4,0.5-0.8L27.1,34.3L27.1,34.3z"/><path class="st0" d="M26.6,18.2L26.6,18.2l-9.1-3.6c-0.3-0.1-0.7-0.1-1,0l-9,3.6C7.2,18.3,7,18.6,7,18.9l0,10.8   c0,0.4,0.2,0.7,0.5,0.8l9.1,3.6l0,0c0.2,0.1,0.3,0.1,0.5,0.1l0-11.3c0-0.4,0.2-0.7,0.5-0.8l9.3-3.7C26.9,18.3,26.7,18.2,26.6,18.2z   "/><path class="st3" d="M26.6,18.2L26.6,18.2l-9.1-3.6c-0.3-0.1-0.7-0.1-1,0l-9,3.6c-0.1,0.1-0.2,0.1-0.3,0.2l10.1,4   c0,0,0.2-0.2,0.3-0.2l9.3-3.7C26.9,18.3,26.7,18.2,26.6,18.2z"/><path class="st2" d="M27.1,19c0-0.2-0.1-0.4-0.2-0.5l-9.3,3.7c-0.3,0.1-0.5,0.4-0.5,0.8v11.3c0.2,0,0.3,0,0.5-0.1l0,0l9-3.6   c0.3-0.1,0.5-0.4,0.5-0.8L27.1,19L27.1,19z"/></g><g><path class="st0" d="M41.5,40.1L41.5,40.1l-9.1-3.6c-0.3-0.1-0.7-0.1-1,0l-9,3.6c-0.3,0.1-0.5,0.4-0.5,0.8l0,10.8   c0,0.4,0.2,0.7,0.5,0.8l9.1,3.6l0,0c0.2,0.1,0.3,0.1,0.5,0.1l0-11.3c0-0.4,0.2-0.7,0.5-0.8l9.3-3.7C41.8,40.2,41.7,40.1,41.5,40.1z   "/><path class="st3" d="M41.5,40.1L41.5,40.1l-9.1-3.6c-0.3-0.1-0.7-0.1-1,0l-9,3.6c-0.1,0.1-0.2,0.1-0.3,0.2l10.1,4   c0,0,0.2-0.2,0.3-0.2l9.3-3.7C41.8,40.2,41.7,40.1,41.5,40.1z"/><path class="st2" d="M42.1,40.9c0-0.2-0.1-0.4-0.2-0.5L32.6,44c-0.3,0.1-0.5,0.4-0.5,0.8v11.3c0.2,0,0.3,0,0.5-0.1l0,0l9-3.6   c0.3-0.1,0.5-0.4,0.5-0.8L42.1,40.9L42.1,40.9z"/><path class="st0" d="M41.5,24.7L41.5,24.7l-9.1-3.6c-0.3-0.1-0.7-0.1-1,0l-9,3.6c-0.3,0.1-0.5,0.4-0.5,0.8l0,10.8   c0,0.4,0.2,0.7,0.5,0.8l9.1,3.6l0,0c0.2,0.1,0.3,0.1,0.5,0.1l0-11.3c0-0.4,0.2-0.7,0.5-0.8l9.3-3.7C41.8,24.9,41.7,24.8,41.5,24.7z   "/><path class="st3" d="M41.5,24.7L41.5,24.7l-9.1-3.6c-0.3-0.1-0.7-0.1-1,0l-9,3.6c-0.1,0.1-0.2,0.1-0.3,0.2l10.1,4   c0,0,0.2-0.2,0.3-0.2l9.3-3.7C41.8,24.9,41.7,24.8,41.5,24.7z"/><path class="st2" d="M42.1,25.5c0-0.2-0.1-0.4-0.2-0.5l-9.3,3.7c-0.3,0.1-0.5,0.4-0.5,0.8v11.3c0.2,0,0.3,0,0.5-0.1l0,0l9-3.6   c0.3-0.1,0.5-0.4,0.5-0.8L42.1,25.5L42.1,25.5z"/></g></svg>