<?xml version="1.0" ?><svg id="Layer_1" style="enable-background:new 0 0 64 64;" version="1.1" viewBox="0 0 64 64" xml:space="preserve" xmlns="http://www.w3.org/2000/svg" xmlns:xlink="http://www.w3.org/1999/xlink"><style type="text/css">
	.st0{fill:#D9DCE1;}
	.st1{fill:#0478ED;}
	.st2{fill:#56AAFF;}
	.st3{fill:#FFFFFF;}
	.st4{fill:none;stroke:#D9DCE1;stroke-width:2;stroke-linecap:round;stroke-miterlimit:10;}
	.st5{fill:none;stroke:#56AAFF;stroke-width:2;stroke-miterlimit:10;}
	.st6{fill:#E3E6E9;}
	.st7{fill:none;stroke:#E3E6E9;stroke-width:2;stroke-miterlimit:10;}
	.st8{fill:none;stroke:#FFFFFF;stroke-width:2;stroke-miterlimit:10;}
	.st9{fill:none;stroke:#56AAFF;stroke-width:3;stroke-miterlimit:10;}
	.st10{fill:none;stroke:#0478ED;stroke-width:2;stroke-miterlimit:10;}
	.st11{fill:none;stroke:#0478ED;stroke-width:6.2196;stroke-linecap:round;stroke-miterlimit:10;}
	.st12{fill:#4A4A70;}
	.st13{fill:none;stroke:#D9DCE1;stroke-width:4;stroke-miterlimit:10;}
	.st14{fill:none;stroke:#D9DCE1;stroke-width:2;stroke-miterlimit:10;}
	.st15{fill-rule:evenodd;clip-rule:evenodd;fill:#FFFFFF;}
	.st16{fill:none;stroke:#D9DCE1;stroke-width:3;stroke-miterlimit:10;}
	.st17{fill:none;stroke:#56AAFF;stroke-width:12;stroke-miterlimit:10;}
	.st18{fill:none;stroke:#D9DCE1;stroke-width:12;stroke-miterlimit:10;}
</style><polygon class="st0" points="12.6,20.8 12.6,43.2 32,54.4 51.4,43.2 51.4,20.8 32,9.6 "/><path class="st12" d="M32,41c2.2,0,4.3-0.8,5.9-2.2c-0.6-2.4-3-3.3-5.9-3.3s-5.3,0.9-5.9,3.3C27.7,40.2,29.8,41,32,41z"/><circle class="st3" cx="32" cy="30.8" r="3.5"/><path class="st3" d="M32,23c-5,0-9,4-9,9c0,5,4,9,9,9s9-4,9-9C41,27,37,23,32,23z"/><path class="st1" d="M38.6,38.1c-0.9-2.4-3.5-3.4-6.6-3.4s-5.7,1-6.6,3.4c1.6,1.8,4,2.9,6.6,2.9S36.9,39.9,38.6,38.1z"/><circle class="st1" cx="32" cy="30" r="3"/><circle class="st3" cx="32" cy="11.2" r="2.5"/><path class="st2" d="M32,6c-3.3,0-6,2.7-6,6c0,3.3,2.7,6,6,6s6-2.7,6-6C38,8.7,35.3,6,32,6z"/><path class="st1" d="M32,18c1.5,0,2.9-0.5,3.9-1.4c-0.4-1.6-2-2.2-3.9-2.2s-3.5,0.6-3.9,2.2C29.1,17.5,30.5,18,32,18z"/><circle class="st3" cx="32" cy="11" r="2"/><circle class="st3" cx="50" cy="21.2" r="2.5"/><path class="st2" d="M50,16c-3.3,0-6,2.7-6,6c0,3.3,2.7,6,6,6s6-2.7,6-6C56,18.7,53.3,16,50,16z"/><path class="st1" d="M50,28c1.5,0,2.9-0.5,3.9-1.4c-0.4-1.6-2-2.2-3.9-2.2s-3.5,0.6-3.9,2.2C47.1,27.5,48.5,28,50,28z"/><circle class="st3" cx="50" cy="21" r="2"/><path class="st2" d="M50,36c-3.3,0-6,2.7-6,6c0,3.3,2.7,6,6,6s6-2.7,6-6C56,38.7,53.3,36,50,36z"/><path class="st1" d="M50,48c1.5,0,2.9-0.5,3.9-1.4c-0.4-1.6-2-2.2-3.9-2.2s-3.5,0.6-3.9,2.2C47.1,47.5,48.5,48,50,48z"/><circle class="st3" cx="50" cy="41" r="2"/><circle class="st3" cx="14" cy="21.2" r="2.5"/><path class="st2" d="M14,16c-3.3,0-6,2.7-6,6c0,3.3,2.7,6,6,6s6-2.7,6-6C20,18.7,17.3,16,14,16z"/><path class="st1" d="M14,28c1.5,0,2.9-0.5,3.9-1.4c-0.4-1.6-2-2.2-3.9-2.2s-3.5,0.6-3.9,2.2C11.1,27.5,12.5,28,14,28z"/><circle class="st3" cx="14" cy="21" r="2"/><path class="st2" d="M14,36c-3.3,0-6,2.7-6,6c0,3.3,2.7,6,6,6s6-2.7,6-6C20,38.7,17.3,36,14,36z"/><path class="st1" d="M14,48c1.5,0,2.9-0.5,3.9-1.4c-0.4-1.6-2-2.2-3.9-2.2s-3.5,0.6-3.9,2.2C11.1,47.5,12.5,48,14,48z"/><circle class="st3" cx="14" cy="41" r="2"/><path class="st12" d="M32,58c1.5,0,2.9-0.5,3.9-1.4c-0.4-1.6-2-2.2-3.9-2.2s-3.5,0.6-3.9,2.2C29.1,57.5,30.5,58,32,58z"/><circle class="st3" cx="32" cy="51.2" r="2.5"/><path class="st2" d="M32,46c-3.3,0-6,2.7-6,6c0,3.3,2.7,6,6,6s6-2.7,6-6C38,48.7,35.3,46,32,46z"/><path class="st1" d="M32,58c1.5,0,2.9-0.5,3.9-1.4c-0.4-1.6-2-2.2-3.9-2.2s-3.5,0.6-3.9,2.2C29.1,57.5,30.5,58,32,58z"/><circle class="st3" cx="32" cy="51" r="2"/></svg>